<svg xmlns="http://www.w3.org/2000/svg" viewBox="0 0 1920 1200">
  <defs>
    <radialGradient id="g1" cx="20%" cy="50%" r="55%">
      <stop offset="0%"  stop-color="#05d9e8" stop-opacity="0.10"/>
      <stop offset="100%" stop-color="#05d9e8" stop-opacity="0"/>
    </radialGradient>
    <radialGradient id="g2" cx="80%" cy="20%" r="50%">
      <stop offset="0%"  stop-color="#d300c5" stop-opacity="0.09"/>
      <stop offset="100%" stop-color="#d300c5" stop-opacity="0"/>
    </radialGradient>
    <radialGradient id="g3" cx="55%" cy="85%" r="45%">
      <stop offset="0%"  stop-color="#ff2a6d" stop-opacity="0.08"/>
      <stop offset="100%" stop-color="#ff2a6d" stop-opacity="0"/>
    </radialGradient>
    <pattern id="grid" width="52" height="52" patternUnits="userSpaceOnUse">
      <path d="M 52 0 L 0 0 0 52" fill="none" stroke="#05d9e8" stroke-width="1" stroke-opacity="0.06"/>
    </pattern>
    <radialGradient id="vignette" cx="50%" cy="50%" r="65%">
      <stop offset="60%" stop-color="#000" stop-opacity="0"/>
      <stop offset="100%" stop-color="#000" stop-opacity="0.55"/>
    </radialGradient>
  </defs>

  <rect width="1920" height="1200" fill="#05050a"/>
  <rect width="1920" height="1200" fill="url(#grid)"/>
  <rect width="1920" height="1200" fill="url(#g1)"/>
  <rect width="1920" height="1200" fill="url(#g2)"/>
  <rect width="1920" height="1200" fill="url(#g3)"/>

  <!-- Subtle horizontal scanlines -->
  <g opacity="0.6">
    <rect y="0"   width="1920" height="1200" fill="url(#scan)"/>
  </g>
  <defs>
    <pattern id="scan" width="1920" height="4" patternUnits="userSpaceOnUse">
      <rect width="1920" height="2" fill="transparent"/>
      <rect y="2" width="1920" height="2" fill="#05d9e8" fill-opacity="0.015"/>
    </pattern>
  </defs>

  <rect width="1920" height="1200" fill="url(#vignette)"/>

  <!-- HUD frame -->
  <g stroke="#05d9e8" stroke-opacity="0.35" fill="none" stroke-width="1.5">
    <path d="M 60 60 L 200 60"/>
    <path d="M 60 60 L 60 200"/>
    <path d="M 1860 60 L 1720 60"/>
    <path d="M 1860 60 L 1860 200"/>
    <path d="M 60 1140 L 200 1140"/>
    <path d="M 60 1140 L 60 1000"/>
    <path d="M 1860 1140 L 1720 1140"/>
    <path d="M 1860 1140 L 1860 1000"/>
  </g>

  <text x="80" y="100" font-family="Share Tech Mono, monospace" font-size="14" fill="#05d9e8" fill-opacity="0.6" letter-spacing="3">SYS://ZPWRCHROME</text>
  <text x="80" y="120" font-family="Share Tech Mono, monospace" font-size="11" fill="#7a8ba8" letter-spacing="2">// menketechnologies // hud_v1</text>
</svg>
